<svg fill="#000000" xmlns="http://www.w3.org/2000/svg"  viewBox="0 0 24 24" width="96px" height="96px"><path d="M 10.699219 16.691406 L 9.894531 14.539063 C 9.894531 14.539063 8.585938 15.972656 6.617188 15.972656 C 4.878906 15.972656 3.644531 14.488281 3.644531 12.117188 C 3.644531 9.074219 5.207031 7.988281 6.746094 7.988281 C 8.960938 7.988281 9.667969 9.394531 10.273438 11.199219 L 11.078125 13.671875 C 11.886719 16.070313 13.398438 18 17.757813 18 C 20.882813 18 23 17.058594 23 14.589844 C 23 12.585938 21.839844 11.546875 19.671875 11.050781 L 18.058594 10.707031 C 16.949219 10.460938 16.621094 10.015625 16.621094 9.273438 C 16.621094 8.433594 17.304688 7.9375 18.410156 7.9375 C 19.621094 7.9375 20.277344 8.382813 20.378906 9.445313 L 22.898438 9.148438 C 22.695313 6.925781 21.132813 6.007813 18.5625 6.007813 C 16.296875 6.007813 14.078125 6.851563 14.078125 9.542969 C 14.078125 11.226563 14.90625 12.289063 17 12.78125 L 18.714844 13.179688 C 20 13.476563 20.429688 13.992188 20.429688 14.710938 C 20.429688 15.625 19.519531 15.996094 17.808594 15.996094 C 15.261719 15.996094 14.203125 14.6875 13.597656 12.882813 L 12.769531 10.410156 C 11.707031 7.195313 10.019531 6.011719 6.667969 6.011719 C 2.964844 6.007813 1 8.308594 1 12.214844 C 1 15.972656 2.964844 18 6.492188 18 C 9.339844 18 10.699219 16.691406 10.699219 16.691406 Z"/></svg>